HIERARCHY
ROOT Hips
{
	OFFSET 0.000000 8.830580 0.000000
	CHANNELS 6 Xposition Yposition Zposition Zrotation Yrotation Xrotation 
	JOINT Spine
	{
		OFFSET 0.000000 0.010000 0.000000
		CHANNELS 3 Zrotation Yrotation Xrotation
		JOINT Spine1
		{
			OFFSET 0.000000 2.459130 0.000000
			CHANNELS 3 Zrotation Yrotation Xrotation
			JOINT Neck
			{
				OFFSET 0.000000 2.484630 0.000000
				CHANNELS 3 Zrotation Yrotation Xrotation
				JOINT Head_virtual
				{
					OFFSET 0.000000 0.000000 0.000000
					CHANNELS 3 Zrotation Yrotation Xrotation
					JOINT Head
					{
						OFFSET 0.000000 0.927525 0.000000
						CHANNELS 3 Zrotation Yrotation Xrotation
						End Site
						{
							OFFSET 0.000000 0.000000 0.000000
						}
					}
				}
				JOINT LeftUpArm_virtual
				{
					OFFSET 0.000000 0.000000 0.000000
					CHANNELS 3 Zrotation Yrotation Xrotation
					JOINT LeftUpArm
					{
						OFFSET 1.248820 0.000000 0.000000
						CHANNELS 3 Zrotation Yrotation Xrotation
						JOINT LeftForeArm
						{
							OFFSET 2.597580 0.000000 0.000000
							CHANNELS 3 Zrotation Yrotation Xrotation
							JOINT LeftHand
							{
								OFFSET 2.455420 0.000000 0.000000
								CHANNELS 3 Zrotation Yrotation Xrotation
								End Site
								{
									OFFSET 0.000000 0.000000 0.000000
								}
							}
						}
					}
				}
				JOINT RightUpArm_virtual
				{
					OFFSET -0.000000 -0.000000 -0.000000
					CHANNELS 3 Zrotation Yrotation Xrotation
					JOINT RightUpArm
					{
						OFFSET -1.248820 -0.000000 -0.000000
						CHANNELS 3 Zrotation Yrotation Xrotation
						JOINT RightForeArm
						{
							OFFSET -2.597580 -0.000000 -0.000000
							CHANNELS 3 Zrotation Yrotation Xrotation
							JOINT RightHand
							{
								OFFSET -2.455420 -0.000000 -0.000000
								CHANNELS 3 Zrotation Yrotation Xrotation
								End Site
								{
									OFFSET 0.000000 0.000000 0.000000
								}
							}
						}
					}
				}
			}
		}
	}
	JOINT LeftUpLeg
	{
		OFFSET 1.271939 0.000000 0.000000
		CHANNELS 3 Zrotation Yrotation Xrotation
		JOINT LeftLowLeg
		{
			OFFSET 0.000000 -4.342910 0.000000
			CHANNELS 3 Zrotation Yrotation Xrotation
			JOINT LeftFoot
			{
				OFFSET 0.000000 -4.487670 0.000000
				CHANNELS 3 Zrotation Yrotation Xrotation
				JOINT LeftToeBase
				{
					OFFSET 0.000000 0.000000 1.515070
					CHANNELS 3 Zrotation Yrotation Xrotation
					End Site
					{
						OFFSET 0.000000 0.000000 0.000000
					}
				}
			}
		}
	}
	JOINT RightUpLeg
	{
		OFFSET -1.271939 0.000000 0.000000
		CHANNELS 3 Zrotation Yrotation Xrotation
		JOINT RightLowLeg
		{
			OFFSET 0.000000 -4.342910 0.000000
			CHANNELS 3 Zrotation Yrotation Xrotation
			JOINT RightFoot
			{
				OFFSET 0.000000 -4.487670 0.000000
				CHANNELS 3 Zrotation Yrotation Xrotation
				JOINT RightToeBase
				{
					OFFSET 0.000000 0.000000 1.515070
					CHANNELS 3 Zrotation Yrotation Xrotation
					End Site
					{
						OFFSET 0.000000 0.000000 0.000000
					}
				}
			}
		}
	}
}
MOTION
Frames: 10
Frame Time: 0.041667
-15.729145 -0.408162 43.709162 177.133413 7.171189 94.620968 16.250100 15.424845 5.477085 -4.933674 -15.788512 41.917187 0.000000 0.000000 0.000000 -30.306459 -19.775335 60.781487 1.782138 43.626937 -79.803059 -15.920000 3.941150 -9.391380 -38.369099 40.549801 8.047380 0.000000 -78.956398 0.000000 38.060902 0.236765 51.970299 10.171800 4.783330 2.686010 59.814301 -55.440899 2.696520 -180.000000 76.757004 -180.000000 -29.832800 16.765900 49.630402 7.053039 -3.307028 -7.588431 0.000000 0.000000 9.323040 1.412368 5.357900 15.354005 0.000000 0.000000 -27.348800 2.601953 -2.724085 -6.372891 0.000000 0.000000 4.067670 -6.078432 -31.749261 37.542230 0.000000 0.000000 -34.168301 
-15.731473 -0.406900 43.706534 177.277154 7.115487 94.646247 16.253842 15.289667 5.345205 -4.886134 -15.831256 42.021706 0.000000 0.000000 0.000000 -30.277935 -19.732029 60.580289 1.765014 43.591413 -79.901563 -15.922200 4.011300 -9.404880 -38.353401 40.383598 8.198430 0.000000 -78.855202 0.000000 38.038101 0.245337 51.895802 10.180700 4.843200 2.863870 60.095901 -55.482498 2.283690 -180.000000 76.558998 -180.000000 -29.834299 16.811600 49.741600 7.018965 -3.087691 -7.676702 0.000000 0.000000 9.395250 1.046241 5.457889 15.368237 0.000000 0.000000 -27.193500 2.494229 -2.919915 -6.190588 0.000000 0.000000 3.740480 -5.572444 -31.420375 37.843906 0.000000 0.000000 -34.222900 
-15.734820 -0.407721 43.704611 177.388614 7.102360 94.644585 16.335284 15.186045 5.307677 -4.842971 -15.870049 42.040198 0.000000 0.000000 0.000000 -30.256315 -19.752159 60.433878 1.814940 43.536873 -79.888857 -15.930900 4.063990 -9.424480 -38.301300 40.237000 8.395230 0.000000 -78.764000 0.000000 38.022202 0.282295 51.834900 10.185200 4.906090 2.901520 60.280102 -55.667000 2.005350 -180.000000 76.373001 -180.000000 -29.837900 16.806400 49.777000 7.018061 -2.920401 -7.782189 0.000000 0.000000 9.572880 1.042184 5.449865 15.417435 0.000000 0.000000 -27.145400 2.416338 -2.964086 -6.288146 0.000000 0.000000 3.896660 -5.088737 -31.169023 38.164793 0.000000 0.000000 -34.246700 
-15.738411 -0.410388 43.703275 177.449595 7.082442 94.567773 16.435795 15.114272 5.385447 -4.815331 -15.916306 42.033222 0.000000 0.000000 0.000000 -30.231233 -19.777132 60.336506 1.740608 43.545915 -79.998193 -15.934600 4.107790 -9.422250 -38.276402 40.105400 8.538390 0.000000 -78.691399 0.000000 37.990101 0.300665 51.784199 10.116200 4.963370 3.001230 60.570599 -55.744499 1.704090 180.000000 76.231003 180.000000 -29.851000 16.798599 49.843899 7.011311 -2.826088 -7.813692 0.000000 0.000000 9.728320 0.767633 5.592331 15.428257 0.000000 0.000000 -27.050900 2.274960 -2.657437 -6.571638 0.000000 0.000000 4.545520 -4.329465 -31.050584 38.223292 0.000000 0.000000 -34.550200 
-15.741211 -0.413266 43.702870 177.537828 7.082404 94.437158 16.559290 15.032107 5.497356 -4.829572 -15.986923 42.075544 0.000000 0.000000 0.000000 -30.189492 -19.800051 60.248934 1.614286 43.610871 -80.106510 -15.919100 4.141540 -9.522270 -38.220798 40.065800 8.705770 0.000000 -78.662003 0.000000 37.961800 0.363013 51.722401 10.067200 5.030900 3.094650 60.845299 -55.780102 1.403770 180.000000 76.110001 180.000000 -29.830700 16.790600 49.914902 7.017048 -2.709017 -7.797338 0.000000 0.000000 9.893150 0.747283 5.693387 15.437254 0.000000 0.000000 -27.210500 2.175813 -2.388614 -6.897292 0.000000 0.000000 5.392170 -3.885908 -31.090125 38.247735 0.000000 0.000000 -34.705700 
-15.744379 -0.415992 43.703281 177.636046 7.064357 94.382084 16.640840 14.959838 5.512194 -4.824947 -16.021307 42.155972 0.000000 0.000000 0.000000 -30.121531 -19.828976 60.140718 1.622880 43.697930 -80.100901 -15.891900 4.110510 -9.622960 -38.186600 40.045898 8.858900 0.000000 -78.632202 0.000000 37.935902 0.371580 51.700100 10.028300 5.050450 3.134940 61.076302 -55.817001 1.137520 -180.000000 75.999001 -180.000000 -29.821199 16.806299 49.938801 6.997939 -2.634484 -7.831209 0.000000 0.000000 10.004900 0.718640 5.866086 15.367597 0.000000 0.000000 -27.342100 2.105753 -2.496655 -7.294091 0.000000 0.000000 6.252820 -3.272383 -31.033786 38.037314 0.000000 0.000000 -34.999800 
-15.748261 -0.419641 43.705729 177.657771 7.124510 94.530803 16.795216 14.987571 5.384866 -4.943925 -15.990671 42.209449 0.000000 0.000000 0.000000 -30.053532 -19.821995 60.074358 1.700759 43.805891 -80.003178 -15.854000 4.032010 -9.624660 -38.217602 40.047699 8.815220 0.000000 -78.638802 0.000000 37.934399 0.382498 51.699600 10.048200 5.095960 3.134960 61.204300 -55.850300 0.997274 180.000000 75.960999 180.000000 -29.823999 16.806801 49.966202 7.038683 -2.469587 -8.033160 0.000000 0.000000 10.069100 0.849078 5.982743 15.303157 0.000000 0.000000 -27.279100 2.153275 -2.685392 -7.731512 0.000000 0.000000 6.757910 -3.214899 -30.863301 38.052711 0.000000 0.000000 -34.912901 
-15.751577 -0.429047 43.710331 177.433555 7.343011 94.434385 17.160145 15.130209 5.663472 -5.022016 -15.919044 42.169773 0.000000 0.000000 0.000000 -29.977740 -19.742384 59.987739 1.905247 43.923496 -79.844152 -15.851700 3.951740 -9.665340 -38.219601 40.040199 8.793410 0.000000 -78.642303 0.000000 37.914600 0.399812 51.763401 10.053900 5.127450 3.226400 61.409000 -55.738800 0.748145 180.000000 75.928001 180.000000 -29.773800 16.826900 50.034302 7.202015 -1.929706 -7.994643 0.000000 0.000000 10.153500 0.977269 5.955736 15.200273 0.000000 0.000000 -27.467700 2.335759 -2.495246 -8.040774 0.000000 0.000000 7.283190 -3.313470 -30.833953 38.332447 0.000000 0.000000 -34.613800 
-15.752747 -0.432777 43.712270 177.320140 7.422671 94.531561 17.281350 15.238513 5.661007 -5.115614 -15.861003 42.107159 0.000000 0.000000 0.000000 -29.955065 -19.725101 60.038306 1.900737 44.011576 -79.789087 -15.835700 3.872330 -9.639630 -38.220299 40.104301 8.734640 0.000000 -78.664101 0.000000 37.945301 0.392542 51.802502 10.071100 5.145690 3.155500 61.396702 -55.774601 0.796360 -180.000000 75.959000 180.000000 -29.787001 16.813601 50.025799 7.259860 -1.665679 -8.106189 0.000000 0.000000 10.180900 1.048029 5.928590 15.134718 0.000000 0.000000 -27.503100 2.399505 -2.289794 -8.298353 0.000000 0.000000 7.483310 -3.400234 -30.894412 38.457283 0.000000 0.000000 -34.400499 
-15.752647 -0.434850 43.713010 177.205001 7.445931 94.360655 17.366626 15.301484 5.845918 -5.189575 -15.871169 42.117050 0.000000 0.000000 0.000000 -29.921282 -19.523560 59.969578 2.155514 44.052892 -79.498943 -15.791600 3.775730 -9.572640 -38.316898 40.190201 8.575980 0.000000 -78.693604 0.000000 37.953499 0.397337 51.886200 9.996450 5.249920 3.259340 61.660702 -55.708801 0.624214 180.000000 75.968002 180.000000 -29.756901 16.795601 50.055401 7.254267 -1.402805 -7.940535 0.000000 0.000000 10.210000 1.112138 5.802385 15.014758 0.000000 0.000000 -27.900800 2.395757 -2.002437 -8.181560 0.000000 0.000000 7.493240 -3.330549 -30.975438 38.566340 0.000000 0.000000 -34.337601 
